<svg width="811" height="304" viewBox="0 0 811 304" fill="none" xmlns="http://www.w3.org/2000/svg">
<g clip-path="url(#clip0_205_385)">
<path d="M23.2718 268.343C26.1207 269.344 29.1796 269.595 32.1536 269.071C35.1276 268.548 37.9167 267.267 40.2519 265.352C46.1992 260.36 48.0642 252.138 49.581 244.524L54.0686 222L44.6735 228.469C37.9166 233.121 31.008 237.923 26.33 244.661C21.652 251.4 19.6112 260.599 23.3687 267.891" fill="#E6E6E6"/>
<path d="M24.7226 297.18C23.5401 288.565 22.3234 279.838 23.1549 271.131C23.8917 263.397 26.2511 255.845 31.0545 249.651C33.6041 246.369 36.7066 243.558 40.2223 241.343C41.1389 240.764 41.9827 242.217 41.07 242.793C34.9867 246.637 30.2813 252.314 27.6324 259.005C24.7069 266.446 24.2372 274.557 24.7411 282.461C25.0457 287.241 25.6929 291.99 26.3429 296.733C26.3943 296.947 26.3622 297.173 26.2533 297.365C26.1444 297.557 25.9667 297.7 25.7562 297.766C25.5414 297.824 25.3125 297.794 25.1191 297.685C24.9257 297.575 24.7835 297.393 24.7232 297.179L24.7226 297.18Z" fill="#F2F2F2"/>
<path d="M33.2341 283.356C34.4558 285.214 36.1353 286.725 38.1107 287.745C40.0862 288.765 42.291 289.259 44.5128 289.179C50.2238 288.908 54.983 284.924 59.2668 281.14L71.9402 269.951L63.5528 269.549C57.521 269.26 51.3335 268.989 45.5884 270.851C39.8433 272.714 34.5449 277.188 33.4945 283.135" fill="#E6E6E6"/>
<path d="M21.3798 302.133C27.0728 292.059 33.6758 280.864 45.4751 277.286C48.7556 276.294 52.1954 275.939 55.6093 276.239C56.6855 276.332 56.4167 277.991 55.3428 277.898C49.6202 277.423 43.9086 278.934 39.1695 282.177C34.7145 285.409 30.9376 289.485 28.0532 294.173C26.2122 296.976 24.5634 299.899 22.9144 302.817C22.3876 303.75 20.8467 303.076 21.3798 302.133Z" fill="#F2F2F2"/>
<path d="M544.027 255.176C547.95 256.555 552.162 256.9 556.257 256.179C560.353 255.458 564.194 253.694 567.409 251.057C575.599 244.183 578.167 232.861 580.256 222.375L586.436 191.359L573.498 200.267C564.193 206.673 554.68 213.286 548.238 222.565C541.796 231.844 538.986 244.512 544.16 254.553" fill="#E6E6E6"/>
<path d="M546.024 294.886C544.396 283.023 542.721 271.006 543.866 259.015C544.88 248.365 548.129 237.966 554.744 229.435C558.255 224.917 562.527 221.045 567.369 217.995C568.631 217.198 569.793 219.199 568.536 219.992C560.159 225.286 553.679 233.104 550.031 242.318C546.003 252.564 545.356 263.733 546.05 274.618C546.469 281.2 547.361 287.739 548.256 294.27C548.326 294.566 548.282 294.877 548.132 295.141C547.982 295.405 547.738 295.602 547.448 295.693C547.152 295.773 546.837 295.732 546.571 295.581C546.304 295.43 546.108 295.18 546.025 294.885L546.024 294.886Z" fill="#F2F2F2"/>
<path d="M557.746 275.85C559.428 278.408 561.741 280.489 564.461 281.894C567.181 283.298 570.217 283.978 573.277 283.869C581.141 283.495 587.695 278.009 593.594 272.798L611.046 257.389L599.496 256.837C591.19 256.439 582.67 256.066 574.758 258.63C566.847 261.194 559.551 267.356 558.104 275.545" fill="#E6E6E6"/>
<path d="M541.422 301.706C549.261 287.835 558.354 272.418 574.602 267.491C579.12 266.125 583.857 265.636 588.558 266.05C590.04 266.178 589.67 268.461 588.191 268.334C580.31 267.68 572.445 269.761 565.919 274.226C559.639 278.501 554.75 284.444 550.611 290.745C548.076 294.606 545.806 298.63 543.535 302.648C542.81 303.933 540.688 303.005 541.422 301.706Z" fill="#F2F2F2"/>
<path d="M540.549 209.456C539.722 209.096 539.057 208.445 538.679 207.626C538.302 206.807 538.239 205.878 538.502 205.015C538.544 204.883 538.571 204.746 538.582 204.608C538.606 204.213 538.502 203.82 538.285 203.489C538.069 203.157 537.752 202.904 537.38 202.767C537.009 202.63 536.603 202.616 536.223 202.728C535.843 202.839 535.509 203.07 535.271 203.387C535.189 203.499 535.121 203.62 535.067 203.748C534.707 204.575 534.056 205.241 533.237 205.618C532.418 205.996 531.489 206.059 530.626 205.796C530.494 205.753 530.357 205.726 530.219 205.716C529.823 205.692 529.431 205.796 529.1 206.012C528.768 206.229 528.515 206.546 528.378 206.917C528.241 207.289 528.227 207.695 528.339 208.074C528.45 208.454 528.681 208.788 528.997 209.026C529.11 209.108 529.231 209.177 529.359 209.23C530.186 209.59 530.851 210.242 531.229 211.061C531.607 211.88 531.67 212.809 531.407 213.671C531.364 213.804 531.337 213.94 531.327 214.079C531.303 214.474 531.407 214.866 531.623 215.198C531.839 215.529 532.157 215.782 532.528 215.919C532.9 216.056 533.305 216.07 533.685 215.959C534.065 215.847 534.399 215.616 534.637 215.3C534.719 215.188 534.788 215.066 534.841 214.938C535.201 214.111 535.853 213.446 536.672 213.068C537.491 212.691 538.42 212.628 539.282 212.891C539.414 212.933 539.551 212.96 539.69 212.971C540.085 212.995 540.477 212.891 540.809 212.674C541.14 212.458 541.393 212.141 541.53 211.769C541.667 211.398 541.681 210.992 541.57 210.612C541.458 210.232 541.227 209.898 540.911 209.66C540.799 209.578 540.677 209.51 540.549 209.456Z" fill="#F1F1F1"/>
<path d="M173.549 114.456C172.722 114.096 172.057 113.445 171.679 112.626C171.302 111.807 171.239 110.878 171.502 110.015C171.544 109.883 171.571 109.746 171.582 109.608C171.606 109.213 171.502 108.82 171.285 108.489C171.069 108.157 170.752 107.904 170.38 107.767C170.009 107.63 169.603 107.616 169.223 107.728C168.843 107.839 168.509 108.07 168.271 108.387C168.189 108.499 168.121 108.62 168.067 108.748C167.707 109.575 167.056 110.241 166.237 110.618C165.418 110.996 164.489 111.059 163.626 110.796C163.494 110.753 163.357 110.726 163.219 110.716C162.823 110.692 162.431 110.796 162.1 111.012C161.768 111.229 161.515 111.546 161.378 111.917C161.241 112.289 161.227 112.695 161.339 113.074C161.45 113.454 161.681 113.788 161.997 114.026C162.11 114.108 162.231 114.177 162.359 114.23C163.186 114.59 163.851 115.242 164.229 116.061C164.607 116.88 164.67 117.809 164.407 118.671C164.364 118.804 164.337 118.94 164.327 119.079C164.303 119.474 164.407 119.866 164.623 120.198C164.839 120.529 165.157 120.782 165.528 120.919C165.9 121.056 166.305 121.07 166.685 120.959C167.065 120.847 167.399 120.616 167.637 120.3C167.719 120.188 167.788 120.066 167.841 119.938C168.201 119.111 168.853 118.446 169.672 118.068C170.491 117.691 171.42 117.628 172.282 117.891C172.414 117.933 172.551 117.96 172.69 117.971C173.085 117.995 173.477 117.891 173.809 117.674C174.14 117.458 174.393 117.141 174.53 116.769C174.667 116.398 174.681 115.992 174.57 115.612C174.458 115.232 174.227 114.898 173.911 114.66C173.799 114.578 173.677 114.51 173.549 114.456Z" fill="#F1F1F1"/>
<path d="M646.654 40C649.968 40 652.654 37.3137 652.654 34C652.654 30.6863 649.968 28 646.654 28C643.34 28 640.654 30.6863 640.654 34C640.654 37.3137 643.34 40 646.654 40Z" fill="#1F4D81"/>
<path d="M180.654 12C183.968 12 186.654 9.31371 186.654 6C186.654 2.68629 183.968 0 180.654 0C177.34 0 174.654 2.68629 174.654 6C174.654 9.31371 177.34 12 180.654 12Z" fill="#CBCBCB"/>
<path d="M157.58 284.691C181.365 284.691 200.647 265.409 200.647 241.623C200.647 217.838 181.365 198.556 157.58 198.556C133.795 198.556 114.513 217.838 114.513 241.623C114.513 265.409 133.795 284.691 157.58 284.691Z" fill="#2F2E41"/>
<path d="M151.038 275.423H137.954V298.865H151.038V275.423Z" fill="#2F2E41"/>
<path d="M177.206 275.423H164.122V298.865H177.206V275.423Z" fill="#2F2E41"/>
<path d="M148.857 303.226C154.879 303.226 159.761 301.396 159.761 299.137C159.761 296.879 154.879 295.049 148.857 295.049C142.836 295.049 137.954 296.879 137.954 299.137C137.954 301.396 142.836 303.226 148.857 303.226Z" fill="#2F2E41"/>
<path d="M175.025 302.681C181.047 302.681 185.928 300.85 185.928 298.592C185.928 296.334 181.047 294.504 175.025 294.504C169.003 294.504 164.122 296.334 164.122 298.592C164.122 300.85 169.003 302.681 175.025 302.681Z" fill="#2F2E41"/>
<path d="M203.989 222.804C213.316 213.47 218.502 203.529 215.572 200.601C212.641 197.673 202.705 202.866 193.378 212.201C184.051 221.535 178.865 231.475 181.796 234.403C184.726 237.331 194.662 232.138 203.989 222.804Z" fill="#2F2E41"/>
<path d="M122.866 237.403C125.796 234.475 120.611 224.535 111.284 215.201C101.957 205.866 92.0204 200.673 89.0902 203.601C86.1599 206.529 91.3454 216.47 100.672 225.804C109.999 235.138 119.936 240.331 122.866 237.403Z" fill="#2F2E41"/>
<path d="M155.768 250.239C163.897 250.239 170.487 243.649 170.487 235.52C170.487 227.391 163.897 220.801 155.768 220.801C147.639 220.801 141.049 227.391 141.049 235.52C141.049 243.649 147.639 250.239 155.768 250.239Z" fill="white"/>
<path d="M155.768 240.427C158.478 240.427 160.674 238.23 160.674 235.52C160.674 232.81 158.478 230.614 155.768 230.614C153.058 230.614 150.862 232.81 150.862 235.52C150.862 238.23 153.058 240.427 155.768 240.427Z" fill="#3F3D56"/>
<path d="M167.452 262.743C167.907 265.241 167.351 267.817 165.906 269.904C164.462 271.992 162.247 273.42 159.749 273.875C157.251 274.33 154.675 273.773 152.588 272.329C150.5 270.884 149.072 268.669 148.617 266.172L148.614 266.153C147.672 260.951 151.694 259.11 156.896 258.168C162.098 257.227 166.511 257.541 167.452 262.743Z" fill="white"/>
<path d="M199.81 286.823C198.841 286.825 197.911 287.21 197.226 287.896C196.54 288.581 196.155 289.51 196.154 290.48V298.117C196.155 299.087 196.54 300.016 197.226 300.701C197.911 301.387 198.841 301.772 199.81 301.773H258.64C259.609 301.772 260.539 301.387 261.224 300.701C261.91 300.016 262.295 299.087 262.296 298.117V290.48C262.295 289.51 261.91 288.581 261.224 287.896C260.539 287.21 259.609 286.825 258.64 286.823H199.81Z" fill="#E5E5E5"/>
<path d="M233.642 281.737C233.278 281.527 232.845 281.47 232.439 281.579C232.033 281.688 231.686 281.953 231.476 282.318L229.29 286.104L227.147 281.87C226.958 281.495 226.626 281.211 226.227 281.079C225.827 280.948 225.392 280.981 225.017 281.171C224.642 281.361 224.357 281.692 224.226 282.092C224.095 282.491 224.128 282.927 224.318 283.302L225.985 286.597H225.374V302H233.529V286.597H232.667L234.222 283.903C234.433 283.539 234.49 283.106 234.381 282.7C234.272 282.294 234.006 281.948 233.642 281.737Z" fill="#1F4D81"/>
<path d="M156.471 213.375C148.819 213.367 141.212 212.205 133.906 209.928C133.398 209.764 132.956 209.444 132.641 209.013C132.326 208.583 132.156 208.064 132.154 207.53V190C132.155 189.337 132.418 188.702 132.887 188.233C133.356 187.764 133.991 187.501 134.654 187.5H178.654C179.317 187.501 179.952 187.764 180.421 188.233C180.889 188.702 181.153 189.337 181.154 190V207.52C181.154 208.058 180.981 208.582 180.661 209.014C180.341 209.446 179.89 209.763 179.375 209.919C171.951 212.188 164.234 213.352 156.471 213.375Z" fill="#1F4D81"/>
<path opacity="0.2" d="M180.654 190V192.93L156.844 201.28C156.399 201.434 155.914 201.426 155.474 201.26L132.654 192.69V190C132.655 189.47 132.867 188.962 133.241 188.587C133.616 188.213 134.124 188.002 134.654 188H178.654C179.184 188.002 179.692 188.213 180.066 188.587C180.441 188.962 180.652 189.47 180.654 190Z" fill="black"/>
<path d="M156.178 197.892C155.877 197.892 155.58 197.838 155.299 197.733L121.198 184.928C120.716 184.747 120.301 184.422 120.011 183.996C119.721 183.57 119.569 183.066 119.577 182.551C119.585 182.036 119.751 181.536 120.054 181.119C120.356 180.702 120.78 180.389 121.267 180.222L153.353 169.246C153.871 169.07 154.433 169.068 154.952 169.239L190.762 181.176C191.257 181.341 191.688 181.656 191.994 182.078C192.301 182.5 192.468 183.007 192.472 183.528C192.476 184.05 192.317 184.559 192.017 184.986C191.717 185.412 191.291 185.734 190.799 185.907L157.004 197.752C156.738 197.844 156.459 197.892 156.178 197.892Z" fill="#1F4D81"/>
<path d="M125.154 197H124.154V182.5H154.654V183.5H125.154V197Z" fill="#3F3D56"/>
<path d="M124.654 200C125.758 200 126.654 199.105 126.654 198C126.654 196.895 125.758 196 124.654 196C123.549 196 122.654 196.895 122.654 198C122.654 199.105 123.549 200 124.654 200Z" fill="#3F3D56"/>
<path d="M406.58 284.691C430.365 284.691 449.647 265.409 449.647 241.623C449.647 217.838 430.365 198.556 406.58 198.556C382.795 198.556 363.513 217.838 363.513 241.623C363.513 265.409 382.795 284.691 406.58 284.691Z" fill="#2F2E41"/>
<path d="M400.038 275.423H386.954V298.865H400.038V275.423Z" fill="#2F2E41"/>
<path d="M426.206 275.423H413.122V298.865H426.206V275.423Z" fill="#2F2E41"/>
<path d="M397.857 303.226C403.879 303.226 408.76 301.396 408.76 299.137C408.76 296.879 403.879 295.049 397.857 295.049C391.836 295.049 386.954 296.879 386.954 299.137C386.954 301.396 391.836 303.226 397.857 303.226Z" fill="#2F2E41"/>
<path d="M424.025 302.681C430.047 302.681 434.928 300.85 434.928 298.592C434.928 296.334 430.047 294.504 424.025 294.504C418.004 294.504 413.122 296.334 413.122 298.592C413.122 300.85 418.004 302.681 424.025 302.681Z" fill="#2F2E41"/>
<path d="M452.989 222.804C462.316 213.47 467.502 203.529 464.571 200.601C461.641 197.673 451.705 202.866 442.378 212.201C433.051 221.535 427.865 231.475 430.795 234.403C433.726 237.331 443.662 232.138 452.989 222.804Z" fill="#2F2E41"/>
<path d="M368.139 262.78C375.665 251.942 379.008 241.24 375.606 238.877C372.203 236.514 363.344 243.386 355.818 254.224C348.292 265.063 344.949 275.765 348.351 278.128C351.754 280.49 360.613 273.619 368.139 262.78Z" fill="#2F2E41"/>
<path d="M404.768 250.239C412.897 250.239 419.487 243.649 419.487 235.52C419.487 227.391 412.897 220.801 404.768 220.801C396.639 220.801 390.049 227.391 390.049 235.52C390.049 243.649 396.639 250.239 404.768 250.239Z" fill="white"/>
<path d="M409.768 235.427C412.478 235.427 414.674 233.23 414.674 230.52C414.674 227.81 412.478 225.614 409.768 225.614C407.058 225.614 404.861 227.81 404.861 230.52C404.861 233.23 407.058 235.427 409.768 235.427Z" fill="#3F3D56"/>
<path d="M422.415 262.743C423.859 267.944 418.6 272.928 410.668 273.875C402.736 274.822 395.135 271.373 393.691 266.172L393.686 266.153C392.25 260.951 398.384 259.11 406.317 258.168C414.251 257.227 420.979 257.541 422.415 262.743Z" fill="white"/>
<path d="M391.511 216.276C384.408 219.124 376.917 220.884 369.289 221.496C368.757 221.534 368.227 221.402 367.774 221.12C367.321 220.838 366.97 220.42 366.769 219.926L360.229 203.661C359.982 203.046 359.99 202.358 360.25 201.748C360.51 201.138 361.001 200.657 361.616 200.409L402.439 183.994C403.054 183.747 403.742 183.755 404.352 184.015C404.962 184.275 405.443 184.766 405.691 185.381L412.227 201.636C412.428 202.135 412.463 202.685 412.327 203.206C412.191 203.726 411.892 204.189 411.472 204.526C405.43 209.4 398.705 213.359 391.511 216.276Z" fill="#1F4D81"/>
<path opacity="0.2" d="M405.228 185.567L406.321 188.286L387.345 204.916C386.989 205.224 386.537 205.398 386.066 205.408L361.696 205.97L360.693 203.474C360.497 202.982 360.503 202.432 360.711 201.945C360.919 201.457 361.311 201.072 361.802 200.873L402.626 184.458C403.118 184.262 403.668 184.268 404.156 184.476C404.643 184.684 405.028 185.076 405.228 185.567Z" fill="black"/>
<path d="M385.462 202.02C385.184 202.133 384.888 202.194 384.588 202.201L348.172 203.043C347.657 203.055 347.151 202.907 346.723 202.62C346.295 202.334 345.966 201.922 345.781 201.441C345.596 200.961 345.564 200.435 345.689 199.935C345.814 199.436 346.091 198.987 346.48 198.65L372.155 176.496C372.57 176.14 373.09 175.928 373.636 175.893L411.314 173.609C411.835 173.577 412.352 173.709 412.794 173.986C413.235 174.263 413.579 174.672 413.778 175.154C413.976 175.636 414.018 176.168 413.899 176.676C413.78 177.184 413.505 177.641 413.113 177.985L386.177 201.582C385.965 201.767 385.723 201.916 385.462 202.02Z" fill="#1F4D81"/>
<path d="M356.346 212.767L355.418 213.14L350.009 199.687L378.307 188.308L378.68 189.236L351.309 200.242L356.346 212.767Z" fill="#3F3D56"/>
<path d="M356.255 215.881C357.359 215.881 358.255 214.986 358.255 213.881C358.255 212.777 357.359 211.881 356.255 211.881C355.15 211.881 354.255 212.777 354.255 213.881C354.255 214.986 355.15 215.881 356.255 215.881Z" fill="#3F3D56"/>
<path d="M570.537 139.869C564.046 135.818 558.202 130.811 553.204 125.016C552.86 124.609 552.653 124.103 552.613 123.571C552.574 123.039 552.703 122.508 552.984 122.055L562.249 107.173C562.6 106.611 563.16 106.211 563.805 106.061C564.451 105.911 565.13 106.023 565.693 106.372L603.045 129.628C603.607 129.979 604.007 130.539 604.157 131.184C604.307 131.83 604.195 132.509 603.846 133.072L594.586 147.945C594.301 148.401 593.878 148.755 593.378 148.952C592.877 149.15 592.327 149.181 591.807 149.041C584.306 147.043 577.14 143.953 570.537 139.869Z" fill="#1F4D81"/>
<path opacity="0.2" d="M603.421 132.807L601.873 135.295L577.247 129.798C576.788 129.694 576.38 129.431 576.094 129.057L561.252 109.721L562.674 107.437C562.955 106.988 563.403 106.669 563.919 106.549C564.435 106.429 564.978 106.518 565.429 106.797L602.781 130.053C603.23 130.334 603.549 130.782 603.669 131.298C603.789 131.814 603.7 132.357 603.421 132.807Z" fill="black"/>
<path d="M578.472 126.57C578.217 126.411 577.993 126.209 577.81 125.971L555.629 97.0769C555.316 96.6683 555.136 96.1729 555.114 95.6583C555.093 95.1437 555.231 94.6351 555.51 94.2019C555.788 93.7688 556.194 93.4323 556.671 93.2384C557.148 93.0445 557.674 93.0027 558.176 93.1187L591.215 100.759C591.748 100.884 592.225 101.179 592.576 101.599L616.666 130.659C616.999 131.061 617.198 131.556 617.235 132.076C617.272 132.596 617.146 133.115 616.874 133.56C616.602 134.005 616.197 134.353 615.717 134.557C615.237 134.76 614.706 134.808 614.197 134.695L579.248 126.888C578.973 126.826 578.711 126.719 578.472 126.57Z" fill="#1F4D81"/>
<path d="M552.607 109.416L551.758 108.887L559.422 96.578L585.314 112.699L584.785 113.547L559.742 97.955L552.607 109.416Z" fill="#3F3D56"/>
<path d="M551.654 112C552.759 112 553.654 111.105 553.654 110C553.654 108.896 552.759 108 551.654 108C550.55 108 549.654 108.896 549.654 110C549.654 111.105 550.55 112 551.654 112Z" fill="#3F3D56"/>
<path d="M674.727 235.691C698.513 235.691 717.795 216.409 717.795 192.623C717.795 168.838 698.513 149.556 674.727 149.556C650.942 149.556 631.66 168.838 631.66 192.623C631.66 216.409 650.942 235.691 674.727 235.691Z" fill="#2F2E41"/>
<path d="M704.584 214.954L693.42 221.777L705.645 241.779L716.809 234.956L704.584 214.954Z" fill="#2F2E41"/>
<path d="M682.256 228.6L671.092 235.423L683.317 255.425L694.48 248.602L682.256 228.6Z" fill="#2F2E41"/>
<path d="M709.779 244.363C714.918 241.223 718.128 237.116 716.951 235.189C715.773 233.262 710.653 234.246 705.515 237.386C700.377 240.526 697.167 244.633 698.344 246.56C699.522 248.487 704.641 247.503 709.779 244.363Z" fill="#2F2E41"/>
<path d="M687.167 257.544C692.305 254.404 695.516 250.296 694.338 248.369C693.161 246.443 688.041 247.426 682.903 250.566C677.765 253.707 674.554 257.814 675.732 259.741C676.909 261.668 682.029 260.684 687.167 257.544Z" fill="#2F2E41"/>
<path d="M650.512 185.403C653.442 182.475 648.257 172.535 638.93 163.201C629.603 153.867 619.666 148.673 616.736 151.601C613.806 154.529 618.991 164.47 628.318 173.804C637.645 183.138 647.582 188.331 650.512 185.403Z" fill="#2F2E41"/>
<path d="M732.956 229.127C736.359 226.765 733.016 216.063 725.49 205.224C717.964 194.386 709.105 187.514 705.702 189.877C702.299 192.24 705.642 202.941 713.168 213.78C720.694 224.619 729.554 231.49 732.956 229.127Z" fill="#2F2E41"/>
<path d="M661.54 195.239C669.669 195.239 676.259 188.649 676.259 180.52C676.259 172.391 669.669 165.801 661.54 165.801C653.41 165.801 646.82 172.391 646.82 180.52C646.82 188.649 653.41 195.239 661.54 195.239Z" fill="white"/>
<path d="M656.54 180.427C659.249 180.427 661.446 178.23 661.446 175.52C661.446 172.81 659.249 170.614 656.54 170.614C653.83 170.614 651.633 172.81 651.633 175.52C651.633 178.23 653.83 180.427 656.54 180.427Z" fill="#3F3D56"/>
<path d="M642.585 205.073C639.794 209.646 643.513 215.833 650.892 218.891C658.27 221.95 666.515 220.722 669.306 216.149L669.316 216.133C672.1 211.557 666.692 208.133 659.311 205.079C651.93 202.025 645.369 200.497 642.585 205.073Z" fill="white"/>
<path d="M660.277 138.547C664.123 123.06 681.098 113.946 698.192 118.191C715.286 122.436 726.026 138.431 722.18 153.918C718.335 169.405 705.577 169.455 688.482 165.211C671.388 160.966 656.431 154.034 660.277 138.547Z" fill="#E6E6E6"/>
<path d="M810 304H1C0.734784 304 0.480429 303.895 0.292892 303.707C0.105356 303.52 0 303.265 0 303C0 302.735 0.105356 302.48 0.292892 302.293C0.480429 302.105 0.734784 302 1 302H810C810.265 302 810.52 302.105 810.707 302.293C810.895 302.48 811 302.735 811 303C811 303.265 810.895 303.52 810.707 303.707C810.52 303.895 810.265 304 810 304Z" fill="#CBCBCB"/>
</g>
<defs>
<clipPath id="clip0_205_385">
<rect width="811" height="304" fill="white"/>
</clipPath>
</defs>
</svg>
